<svg xmlns="http://www.w3.org/2000/svg" viewBox="0 0 30 30" width="30" height="30">
  <path fill="#4285F4" d="M29.643,15.281C29.643,14.052,29.543,13.155,29.327,12.225L15.292,12.225L15.292,17.772L23.530,17.772C23.364,19.151,22.467,21.227,20.474,22.622L24.884,26.245C28.015,23.668,29.643,19.832,29.643,15.281Z"/>
  <path fill="#34A853" d="M15.292,29.897C19.328,29.897,22.716,28.568,25.191,26.276L20.474,22.622C19.212,23.502,17.518,24.117,15.292,24.117C11.339,24.117,7.984,21.509,6.788,17.905L1.998,21.491C4.396,26.542,9.445,29.897,15.292,29.897Z"/>
  <path fill="#FBBC05" d="M6.788,17.905C6.472,16.975,6.290,15.978,6.290,14.948C6.290,13.919,6.472,12.922,6.771,11.992L2.091,8.165C0.925,10.265,0.344,12.540,0.344,14.948C0.344,17.357,0.925,19.632,1.938,21.659L6.788,17.905Z"/>
  <path fill="#EA4335" d="M15.292,5.780C18.099,5.780,19.992,6.993,21.072,8.006L25.291,3.887C22.700,1.478,19.328,0.000,15.292,0.000C9.445,0.000,4.396,3.355,1.938,8.238L6.771,11.992C7.984,8.388,11.339,5.780,15.292,5.780Z"/>
</svg>
